<mxfile host="app.diagrams.net" modified="2020-12-26T15:36:33.841Z" agent="5.0 (Windows NT 10.0; WOW64) AppleWebKit/537.36 (KHTML, like Gecko) Chrome/86.0.4240.193 Safari/537.36" etag="qavQ2wr-uiSmd4LqRLK7" version="14.0.5" type="github">
  <diagram id="WodFLhAZwsUnCGh3K9Pa" name="第 1 页">
    <mxGraphModel dx="757" dy="681" grid="1" gridSize="10" guides="1" tooltips="1" connect="1" arrows="1" fold="1" page="1" pageScale="1" pageWidth="2336" pageHeight="1654" math="0" shadow="0">
      <root>
        <mxCell id="0" />
        <mxCell id="1" parent="0" />
        <mxCell id="JYjud_JIrLW7cY8SY49q-3" style="edgeStyle=orthogonalEdgeStyle;rounded=0;orthogonalLoop=1;jettySize=auto;html=1;" edge="1" parent="1" source="JYjud_JIrLW7cY8SY49q-1" target="JYjud_JIrLW7cY8SY49q-2">
          <mxGeometry relative="1" as="geometry" />
        </mxCell>
        <mxCell id="JYjud_JIrLW7cY8SY49q-1" value="case ID" style="rounded=0;whiteSpace=wrap;html=1;" vertex="1" parent="1">
          <mxGeometry x="360" y="80" width="80" height="30" as="geometry" />
        </mxCell>
        <mxCell id="JYjud_JIrLW7cY8SY49q-5" style="edgeStyle=orthogonalEdgeStyle;rounded=0;orthogonalLoop=1;jettySize=auto;html=1;" edge="1" parent="1" source="JYjud_JIrLW7cY8SY49q-2" target="JYjud_JIrLW7cY8SY49q-4">
          <mxGeometry relative="1" as="geometry" />
        </mxCell>
        <mxCell id="JYjud_JIrLW7cY8SY49q-2" value="i = 0" style="rounded=0;whiteSpace=wrap;html=1;" vertex="1" parent="1">
          <mxGeometry x="375" y="130" width="50" height="20" as="geometry" />
        </mxCell>
        <mxCell id="JYjud_JIrLW7cY8SY49q-4" value="command == 0 ?" style="rhombus;whiteSpace=wrap;html=1;" vertex="1" parent="1">
          <mxGeometry x="335" y="170" width="130" height="50" as="geometry" />
        </mxCell>
        <mxCell id="JYjud_JIrLW7cY8SY49q-9" style="edgeStyle=orthogonalEdgeStyle;rounded=0;orthogonalLoop=1;jettySize=auto;html=1;" edge="1" parent="1" source="JYjud_JIrLW7cY8SY49q-7" target="JYjud_JIrLW7cY8SY49q-8">
          <mxGeometry relative="1" as="geometry" />
        </mxCell>
        <mxCell id="JYjud_JIrLW7cY8SY49q-7" value="i &amp;lt;&amp;nbsp;symbolTable.index ?" style="rhombus;whiteSpace=wrap;html=1;" vertex="1" parent="1">
          <mxGeometry x="150" y="270" width="180" height="50" as="geometry" />
        </mxCell>
        <mxCell id="JYjud_JIrLW7cY8SY49q-11" style="edgeStyle=orthogonalEdgeStyle;rounded=0;orthogonalLoop=1;jettySize=auto;html=1;" edge="1" parent="1" source="JYjud_JIrLW7cY8SY49q-8" target="JYjud_JIrLW7cY8SY49q-10">
          <mxGeometry relative="1" as="geometry" />
        </mxCell>
        <mxCell id="JYjud_JIrLW7cY8SY49q-8" value="变量名相同且flag相同？" style="rhombus;whiteSpace=wrap;html=1;" vertex="1" parent="1">
          <mxGeometry x="150" y="350" width="180" height="50" as="geometry" />
        </mxCell>
        <mxCell id="JYjud_JIrLW7cY8SY49q-10" value="switch flag ?" style="rhombus;whiteSpace=wrap;html=1;" vertex="1" parent="1">
          <mxGeometry x="185" y="420" width="110" height="40" as="geometry" />
        </mxCell>
        <mxCell id="JYjud_JIrLW7cY8SY49q-12" value="case &#39;V&#39;:&lt;br&gt;全局变量中出现相同变量名" style="rounded=0;whiteSpace=wrap;html=1;" vertex="1" parent="1">
          <mxGeometry x="80" y="490" width="90" height="50" as="geometry" />
        </mxCell>
        <mxCell id="JYjud_JIrLW7cY8SY49q-13" value="case &#39;T&#39;:&lt;br&gt;局部变量中出现了相同的变量名" style="rounded=0;whiteSpace=wrap;html=1;" vertex="1" parent="1">
          <mxGeometry x="195" y="490" width="90" height="50" as="geometry" />
        </mxCell>
        <mxCell id="JYjud_JIrLW7cY8SY49q-14" value="case &#39;P&#39;:&lt;br&gt;函数参数中中出现了相同的变量名" style="rounded=0;whiteSpace=wrap;html=1;" vertex="1" parent="1">
          <mxGeometry x="310" y="490" width="100" height="50" as="geometry" />
        </mxCell>
      </root>
    </mxGraphModel>
  </diagram>
</mxfile>
